<?xml version="1.0" standalone="no"?>
<!DOCTYPE svg PUBLIC "-//W3C//DTD SVG 20010904//EN"
 "http://www.w3.org/TR/2001/REC-SVG-20010904/DTD/svg10.dtd">
<svg version="1.0" xmlns="http://www.w3.org/2000/svg"
 width="260.000000pt" height="260.000000pt" viewBox="0 0 260.000000 260.000000"
 preserveAspectRatio="xMidYMid meet">
<metadata>
Created by potrace 1.14, written by Peter Selinger 2001-2017
</metadata>
<g transform="translate(0.000000,260.000000) scale(0.100000,-0.100000)"
fill="#000000" stroke="none">
<path d="M1170 2545 c-8 -2 -49 -9 -90 -15 -165 -27 -369 -112 -516 -216 -89
-62 -236 -209 -298 -298 -101 -142 -183 -336 -217 -511 -18 -92 -18 -368 0
-460 34 -175 116 -369 217 -511 62 -89 209 -236 298 -298 142 -101 336 -183
511 -217 92 -18 368 -18 460 0 175 34 369 116 511 217 89 62 236 209 298 298
101 142 183 336 217 511 18 92 18 368 0 460 -34 175 -116 369 -217 511 -62 89
-209 236 -298 298 -137 97 -315 175 -486 212 -68 15 -351 29 -390 19z m330
-425 c85 -73 156 -139 158 -145 2 -10 -220 -666 -267 -787 -6 -16 -9 -28 -6
-28 2 0 104 123 226 273 122 149 234 286 249 302 l26 31 159 -43 c88 -23 170
-45 183 -48 l22 -5 -2 -202 -3 -202 -408 -127 c-224 -70 -411 -129 -414 -133
-4 -3 145 -6 329 -6 l336 0 32 -117 c18 -65 43 -155 55 -199 l22 -82 -191 -57
c-105 -32 -194 -58 -197 -59 -3 0 -103 88 -223 197 -120 109 -220 197 -222
194 -2 -2 7 -128 21 -281 14 -152 25 -281 25 -287 0 -5 -46 -9 -105 -9 -59 0
-105 4 -105 9 0 6 11 135 25 287 14 153 23 279 21 281 -2 2 -102 -85 -222
-194 -128 -116 -224 -197 -233 -195 -23 5 -375 112 -377 115 0 1 20 79 46 172
26 94 50 182 53 197 l7 28 337 0 c185 0 334 2 331 5 -3 4 -190 63 -414 133
l-409 128 -3 202 -2 202 27 6 c16 4 98 26 183 49 l154 41 26 -31 c15 -16 127
-153 249 -302 122 -150 224 -273 226 -273 4 0 7 -8 -159 470 -64 183 -115 339
-114 346 2 6 82 79 178 162 171 148 175 151 195 133 11 -10 90 -78 175 -151z"/>
</g>
</svg>
